<svg xmlns="http://www.w3.org/2000/svg" width="1920" height="1080" viewBox="0 0 1920 1080">
  <defs>
    <linearGradient id="term3" x1="0" y1="0" x2="1" y2="1">
      <stop offset="0" stop-color="#121514"/><stop offset="1" stop-color="#0b0f0d"/>
    </linearGradient>
    <style>
      text{font-family:"Segoe UI","Microsoft YaHei UI",sans-serif}.t{fill:#f2f5f3;font-weight:700}.b{fill:#d4dad7}.m{fill:#89938e}.g{fill:#3dd68c}.xs{font-size:11px}.sm{font-size:12px}.md{font-size:14px}.mono{font-family:"Cascadia Mono","Consolas",monospace}
    </style>
  </defs>
  <rect width="1920" height="1080" fill="#080a09"/>
  <text x="34" y="36" class="m xs">CLI-MANAGER · DESIGN V3</text>
  <text x="34" y="67" class="t" font-size="23">终端右侧 · 简约供应商切换</text>
  <text x="397" y="66" class="m md">去掉重复卡片，只保留类型、搜索、列表和设置入口</text>

  <!-- window frame -->
  <rect x="26" y="90" width="1868" height="954" rx="16" fill="#111312" stroke="#252927"/>
  <rect x="26" y="90" width="1868" height="48" rx="16" fill="#171918"/>
  <rect x="26" y="122" width="1868" height="16" fill="#171918"/>
  <circle cx="50" cy="114" r="8" fill="#303431"/><path d="M46 114h8m-4-4l4 4-4 4" fill="none" stroke="#9aa29e" stroke-width="1.4"/>
  <text x="72" y="119" class="t" font-size="15">CLI-Manager</text>
  <path d="M1817 113h10m20-6h10v10h-10m30-10l10 10m0-10-10 10" fill="none" stroke="#a3aba7" stroke-width="1.4"/>

  <!-- left sidebar unchanged -->
  <rect x="26" y="138" width="228" height="906" fill="#151716"/><line x1="254" y1="138" x2="254" y2="1044" stroke="#252a27"/>
  <text x="42" y="178" class="g md" font-weight="700">Projects</text>
  <rect x="150" y="153" width="88" height="35" rx="9" fill="#3aca85"/><path d="M166 170h12m-6-6v12" stroke="#07160f" stroke-width="1.8"/>
  <text x="185" y="175" fill="#07160f" class="sm" font-weight="700">新建</text>
  <rect x="35" y="204" width="210" height="43" rx="9" fill="#1a1d1b"/><path d="M48 222l4 4 4-4M68 216h14l4 4v11H68z" fill="none" stroke="#3dd68c" stroke-width="1.4"/>
  <text x="96" y="231" class="b sm" font-weight="700">CLI-Manager</text><text x="226" y="231" class="b sm">3</text>
  <circle cx="54" cy="270" r="10" fill="#33221c"/><path d="M54 262v16m-8-8h16m-13-6l11 12m0-12-11 12" stroke="#ee7446" stroke-width="1.3"/>
  <text x="76" y="275" class="b sm">CLI-Manager</text>
  <circle cx="54" cy="312" r="10" fill="#143228"/><circle cx="54" cy="312" r="5" fill="none" stroke="#3dd68c" stroke-width="1.4"/>
  <text x="76" y="317" class="b sm">CLI-Manager (cx)</text>
  <path d="M48 348l7 7-7 7m10 0h7" fill="none" stroke="#3dd68c" stroke-width="1.5"/><text x="76" y="359" class="b sm">CLI-Manager (run)</text>
  <rect x="35" y="386" width="210" height="43" rx="9" fill="#1a1d1b"/><path d="M48 404l4 4 4-4M68 398h14l4 4v11H68z" fill="none" stroke="#3dd68c" stroke-width="1.4"/>
  <text x="96" y="413" class="b sm" font-weight="700">CPA</text><text x="226" y="413" class="b sm">2</text>
  <path d="M48 447l7 7-7 7m10 0h7M48 489l7 7-7 7m10 0h7" fill="none" stroke="#3dd68c" stroke-width="1.5"/>
  <text x="76" y="458" class="b sm">CPA</text><text x="76" y="500" class="b sm">CPAM</text>
  <line x1="35" y1="962" x2="245" y2="962" stroke="#272b29"/><circle cx="47" cy="995" r="5" fill="none" stroke="#79827d"/><text x="61" y="999" class="m sm">15:31</text>
  <rect x="174" y="976" width="30" height="30" rx="7" fill="#1b1e1c"/><path d="M183 998v-9m6 9v-14m6 14v-6" stroke="#8f9894" stroke-width="1.3"/>
  <rect x="210" y="976" width="30" height="30" rx="7" fill="#1b1e1c"/><circle cx="225" cy="991" r="5" fill="none" stroke="#8f9894" stroke-width="1.3"/>

  <!-- terminal -->
  <rect x="254" y="138" width="1242" height="906" fill="url(#term3)"/>
  <rect x="266" y="150" width="1218" height="42" rx="8" fill="#1a1d1b" stroke="#252b27"/>
  <rect x="276" y="157" width="228" height="28" rx="7" fill="#252a27" stroke="#56605b"/>
  <circle cx="292" cy="171" r="5" fill="#6f65d8"/><circle cx="310" cy="171" r="8" fill="#38251f"/><path d="M310 164v14m-7-7h14m-12-5l10 10m0-10-10 10" stroke="#ee7446" stroke-width="1.1"/>
  <text x="326" y="176" class="b sm">CLI-Manager · Claude</text><path d="M484 167l8 8m0-8-8 8" stroke="#8d9691" stroke-width="1.2"/>
  <rect x="1252" y="157" width="112" height="28" rx="7" fill="#2f5944"/><text x="1269" y="175" class="g sm">＋ 〉 新建</text>
  <rect x="1372" y="157" width="28" height="28" rx="7" fill="#202421"/><circle cx="1386" cy="171" r="6" fill="none" stroke="#9da6a1"/>
  <rect x="1408" y="157" width="28" height="28" rx="7" fill="#202421"/><path d="M1417 176l10-10m-7 0h7v7" fill="none" stroke="#9da6a1"/>
  <text x="286" y="236" class="g mono sm">PS D:\work\pythonProject\CLI-Manager&gt;</text><text x="576" y="236" class="b mono sm"> claude</text>
  <text x="286" y="282" class="b mono md">╭──────────────────────────────────────────────────────────────╮</text>
  <text x="286" y="308" class="m mono md">│  Active session · Claude Code · provider Anyrouter          │</text>
  <text x="286" y="334" class="b mono md">╰──────────────────────────────────────────────────────────────╯</text>
  <text x="286" y="390" class="b mono md">› 请检查当前项目的变更，并给出实现建议。</text>
  <text x="286" y="445" class="m mono sm">• Reading workspace context...</text><text x="286" y="482" class="m mono sm">• Provider configuration loaded from Local · Default Home</text>
  <line x1="286" y1="930" x2="1462" y2="930" stroke="#5d6661"/><text x="286" y="962" class="b mono md">›</text><line x1="286" y1="984" x2="1462" y2="984" stroke="#5d6661"/>
  <text x="286" y="1018" fill="#ee7184" class="mono sm">Opus 4.8 · ctx 5% · master · provider Anyrouter · 32 task(s)</text>

  <!-- right panel -->
  <rect x="1496" y="138" width="398" height="906" fill="#0f1210"/><line x1="1496" y1="138" x2="1496" y2="1044" stroke="#353b37" stroke-width="2"/>
  <rect x="1492" y="496" width="8" height="100" rx="4" fill="#2f6e50" opacity="0.45"/>

  <!-- existing side panel tabs, compact -->
  <rect x="1496" y="138" width="398" height="48" fill="#141715"/>
  <g class="xs" font-weight="700">
    <text x="1512" y="167" fill="#77817c">▥ 统计</text><text x="1566" y="167" fill="#77817c">▣ 资源</text><text x="1624" y="167" fill="#77817c">↶ Replay</text><text x="1694" y="167" fill="#77817c">⚯ Git</text><text x="1742" y="167" fill="#77817c">□ 文件</text>
    <rect x="1790" y="147" width="94" height="30" rx="6" fill="#193a2a" stroke="#337252"/>
    <path d="M1801 162h14m-10-5l-5 5 5 5m6-10l5 5-5 5" fill="none" stroke="#3dd68c" stroke-width="1.3"/>
    <text x="1824" y="167" class="g">供应商</text>
  </g>

  <!-- minimal provider panel -->
  <text x="1518" y="219" class="t" font-size="17">供应商</text><text x="1518" y="239" class="m xs">本机 · 默认 Home</text>
  <path d="M1867 208l10 10m0-10-10 10" stroke="#89938e" stroke-width="1.3"/>

  <!-- cli segment only -->
  <rect x="1518" y="258" width="354" height="38" rx="8" fill="#0b0e0c"/>
  <rect x="1522" y="262" width="112" height="30" rx="6" fill="#214832"/>
  <text x="1578" y="282" class="g sm" font-weight="700" text-anchor="middle">Claude Code</text>
  <text x="1695" y="282" class="m sm" text-anchor="middle">Codex</text><text x="1814" y="282" class="m sm" text-anchor="middle">Grok Build</text>

  <!-- compact search -->
  <rect x="1518" y="312" width="354" height="38" rx="8" fill="#111412" stroke="#2d332f"/>
  <circle cx="1538" cy="331" r="6" fill="none" stroke="#7d8781" stroke-width="1.3"/><path d="M1542 335l5 5" stroke="#7d8781" stroke-width="1.3"/>
  <text x="1556" y="336" class="m sm">搜索供应商</text><text x="1857" y="336" class="m xs" text-anchor="end">4</text>

  <text x="1518" y="378" class="m xs" font-weight="700" letter-spacing="1">供应商</text>

  <!-- one flat list -->
  <rect x="1510" y="390" width="370" height="62" rx="8" fill="#1a2e23" stroke="#326749"/>
  <circle cx="1538" cy="421" r="12" fill="#38251f"/><path d="M1538 412v18m-9-9h18m-15-6l12 12m0-12-12 12" stroke="#ee7446" stroke-width="1.2"/>
  <text x="1562" y="417" class="t sm">Anyrouter</text><text x="1562" y="436" class="m xs">claude-opus-4-7</text>
  <text x="1832" y="417" class="g xs" text-anchor="end">当前</text><circle cx="1852" cy="421" r="8" fill="#3dd68c"/><path d="M1848 421l3 3 5-6" fill="none" stroke="#092016" stroke-width="1.5"/>

  <rect x="1510" y="456" width="370" height="62" rx="8" fill="transparent"/>
  <circle cx="1538" cy="487" r="12" fill="#202526"/><circle cx="1538" cy="487" r="5" fill="none" stroke="#c2cbc7"/>
  <text x="1562" y="483" class="b sm">cpa-cc</text><text x="1562" y="502" class="m xs">claude-opus-4-8[1m] · 主密钥</text>
  <path d="M1850 481l6 6-6 6" fill="none" stroke="#65706a" stroke-width="1.3"/>
  <line x1="1562" y1="518" x2="1872" y2="518" stroke="#202622"/>

  <rect x="1510" y="522" width="370" height="62" rx="8" fill="transparent"/>
  <circle cx="1538" cy="553" r="12" fill="#252434"/><circle cx="1538" cy="553" r="5" fill="none" stroke="#9587f0"/><path d="M1538 543v4m0 12v4" stroke="#9587f0"/>
  <text x="1562" y="549" class="b sm">elysiver</text><text x="1562" y="568" class="m xs">glm-5.1 · 备用密钥</text>
  <path d="M1850 547l6 6-6 6" fill="none" stroke="#65706a" stroke-width="1.3"/>
  <line x1="1562" y1="584" x2="1872" y2="584" stroke="#202622"/>

  <rect x="1510" y="588" width="370" height="62" rx="8" fill="transparent" opacity="0.65"/>
  <circle cx="1538" cy="619" r="12" fill="#242725"/><text x="1538" y="623" class="m xs" text-anchor="middle">W</text>
  <text x="1562" y="615" class="m sm">wong</text><text x="1562" y="634" fill="#c99c48" class="xs">缺少可用密钥</text>
  <path d="M1850 613l6 6-6 6" fill="none" stroke="#766c56" stroke-width="1.3"/>

  <!-- minimal footer -->
  <line x1="1518" y1="973" x2="1872" y2="973" stroke="#292f2b"/>
  <path d="M1521 995h13v13h-13zM1524 992h7v3" fill="none" stroke="#3dd68c" stroke-width="1.3"/>
  <text x="1544" y="1007" class="g sm">在设置中管理供应商</text><path d="M1850 997l6 6-6 6" fill="none" stroke="#3dd68c" stroke-width="1.3"/>

  <!-- annotation -->
  <rect x="1588" y="102" width="182" height="24" rx="12" fill="#103526"/><text x="1679" y="118" class="g sm" font-weight="700" text-anchor="middle">单层结构 · 快速扫读</text>
  <path d="M1708 126l98 18" fill="none" stroke="#3dd68c" stroke-width="1.2" stroke-dasharray="4 4"/>
</svg>
