<!-- Source: microsoft/terminal res/terminal/Terminal.svg (MIT License). -->
<svg width="48" height="48" viewBox="0 0 48 48" fill="none" xmlns="http://www.w3.org/2000/svg">
  <path d="M0 13H16V6H2C0.9 6 0 6.9 0 8V13Z" fill="#CCCCCC"/>
  <path d="M32 6H16V13H32V6Z" fill="#999999"/>
  <path d="M48 13H32V6H46C47.1 6 48 6.9 48 8V13Z" fill="#666666"/>
  <path d="M46 42H2C0.9 42 0 41.1 0 40V12H48V40C48 41.1 47.1 42 46 42Z" fill="url(#cmd-bg)"/>
  <g filter="url(#cmd-chevron-shadow)">
    <path d="M15.2 24.3L6.4 33.1C5.9 33.6 5.9 34.3 6.4 34.7L8.2 36.5C8.7 37 9.4 37 9.8 36.5L18.6 27.7C19.1 27.2 19.1 26.5 18.6 26.1L16.8 24.3C16.4 23.9 15.6 23.9 15.2 24.3Z" fill="url(#cmd-chevron-back)"/>
    <mask id="cmd-chevron-mask" mask-type="alpha" maskUnits="userSpaceOnUse" x="6" y="24" width="13" height="13">
      <path d="M15.2 24.3L6.4 33.1C5.9 33.6 5.9 34.3 6.4 34.7L8.2 36.5C8.7 37 9.4 37 9.8 36.5L18.6 27.7C19.1 27.2 19.1 26.5 18.6 26.1L16.8 24.3C16.4 23.9 15.6 23.9 15.2 24.3Z" fill="white"/>
    </mask>
    <g mask="url(#cmd-chevron-mask)" filter="url(#cmd-chevron-inner-shadow)">
      <path d="M9.8 17.3L18.6 26.1C19.1 26.6 19.1 27.3 18.6 27.7L16.8 29.5C16.3 30 15.6 30 15.2 29.5L6.4 20.7C5.9 20.2 5.9 19.5 6.4 19.1L8.2 17.3C8.6 16.9 9.4 16.9 9.8 17.3Z" fill="url(#cmd-chevron-front)"/>
    </g>
    <path d="M9.8 17.3L18.6 26.1C19.1 26.6 19.1 27.3 18.6 27.7L16.8 29.5C16.3 30 15.6 30 15.2 29.5L6.4 20.7C5.9 20.2 5.9 19.5 6.4 19.1L8.2 17.3C8.6 16.9 9.4 16.9 9.8 17.3Z" fill="url(#cmd-chevron-front)"/>
  </g>
  <g filter="url(#cmd-underscore-shadow)">
    <path d="M40 32H24C23.4 32 23 32.4 23 33V36C23 36.6 23.4 37 24 37H40C40.6 37 41 36.6 41 36V33C41 32.4 40.6 32 40 32Z" fill="url(#cmd-underscore)"/>
  </g>
  <defs>
    <filter id="cmd-chevron-shadow" x="3.025" y="15" width="18.95" height="25.875" filterUnits="userSpaceOnUse" color-interpolation-filters="sRGB">
      <feFlood flood-opacity="0" result="BackgroundImageFix"/>
      <feColorMatrix in="SourceAlpha" type="matrix" values="0 0 0 0 0 0 0 0 0 0 0 0 0 0 0 0 0 0 127 0"/>
      <feOffset dy="0.5"/><feGaussianBlur stdDeviation="0.5"/>
      <feColorMatrix type="matrix" values="0 0 0 0 0 0 0 0 0 0 0 0 0 0 0 0 0 0 0.1 0"/>
      <feBlend mode="normal" in2="BackgroundImageFix" result="effect1_dropShadow"/>
      <feColorMatrix in="SourceAlpha" type="matrix" values="0 0 0 0 0 0 0 0 0 0 0 0 0 0 0 0 0 0 127 0"/>
      <feOffset dy="1"/><feGaussianBlur stdDeviation="1.5"/>
      <feColorMatrix type="matrix" values="0 0 0 0 0 0 0 0 0 0 0 0 0 0 0 0 0 0 0.2 0"/>
      <feBlend mode="normal" in2="effect1_dropShadow" result="effect2_dropShadow"/>
      <feBlend mode="normal" in="SourceGraphic" in2="effect2_dropShadow" result="shape"/>
    </filter>
    <filter id="cmd-chevron-inner-shadow" x="3.025" y="15" width="18.95" height="18.875" filterUnits="userSpaceOnUse" color-interpolation-filters="sRGB">
      <feFlood flood-opacity="0" result="BackgroundImageFix"/>
      <feColorMatrix in="SourceAlpha" type="matrix" values="0 0 0 0 0 0 0 0 0 0 0 0 0 0 0 0 0 0 127 0"/>
      <feOffset dy="0.5"/><feGaussianBlur stdDeviation="0.5"/>
      <feColorMatrix type="matrix" values="0 0 0 0 0 0 0 0 0 0 0 0 0 0 0 0 0 0 0.1 0"/>
      <feBlend mode="normal" in2="BackgroundImageFix" result="effect1_dropShadow"/>
      <feColorMatrix in="SourceAlpha" type="matrix" values="0 0 0 0 0 0 0 0 0 0 0 0 0 0 0 0 0 0 127 0"/>
      <feOffset dy="1"/><feGaussianBlur stdDeviation="1.5"/>
      <feColorMatrix type="matrix" values="0 0 0 0 0 0 0 0 0 0 0 0 0 0 0 0 0 0 0.2 0"/>
      <feBlend mode="normal" in2="effect1_dropShadow" result="effect2_dropShadow"/>
      <feBlend mode="normal" in="SourceGraphic" in2="effect2_dropShadow" result="shape"/>
    </filter>
    <filter id="cmd-underscore-shadow" x="20" y="30" width="24" height="11" filterUnits="userSpaceOnUse" color-interpolation-filters="sRGB">
      <feFlood flood-opacity="0" result="BackgroundImageFix"/>
      <feColorMatrix in="SourceAlpha" type="matrix" values="0 0 0 0 0 0 0 0 0 0 0 0 0 0 0 0 0 0 127 0"/>
      <feOffset dy="0.5"/><feGaussianBlur stdDeviation="0.5"/>
      <feColorMatrix type="matrix" values="0 0 0 0 0 0 0 0 0 0 0 0 0 0 0 0 0 0 0.1 0"/>
      <feBlend mode="normal" in2="BackgroundImageFix" result="effect1_dropShadow"/>
      <feColorMatrix in="SourceAlpha" type="matrix" values="0 0 0 0 0 0 0 0 0 0 0 0 0 0 0 0 0 0 127 0"/>
      <feOffset dy="1"/><feGaussianBlur stdDeviation="1.5"/>
      <feColorMatrix type="matrix" values="0 0 0 0 0 0 0 0 0 0 0 0 0 0 0 0 0 0 0.2 0"/>
      <feBlend mode="normal" in2="effect1_dropShadow" result="effect2_dropShadow"/>
      <feBlend mode="normal" in="SourceGraphic" in2="effect2_dropShadow" result="shape"/>
    </filter>
    <linearGradient id="cmd-bg" x1="36.446" y1="47.826" x2="11.822" y2="5.175" gradientUnits="userSpaceOnUse"><stop stop-color="#333333"/><stop offset="1" stop-color="#4D4D4D"/></linearGradient>
    <linearGradient id="cmd-chevron-back" x1="14.528" y1="33.996" x2="10.484" y2="26.992" gradientUnits="userSpaceOnUse"><stop stop-color="#999999"/><stop offset="1" stop-color="#B3B3B3"/></linearGradient>
    <linearGradient id="cmd-chevron-front" x1="16.275" y1="30.034" x2="8.737" y2="16.979" gradientUnits="userSpaceOnUse"><stop stop-color="#CCCCCC"/><stop offset="1" stop-color="#E6E6E6"/></linearGradient>
    <linearGradient id="cmd-underscore" x1="35.15" y1="39.955" x2="28.85" y2="29.045" gradientUnits="userSpaceOnUse"><stop stop-color="#CCCCCC"/><stop offset="1" stop-color="#E6E6E6"/></linearGradient>
  </defs>
</svg>
