<!-- Source: PowerShell/PowerShell assets/ps_black_64.svg (MIT License). -->
<svg viewBox="0 0 60 45" xmlns="http://www.w3.org/2000/svg">
  <defs>
    <linearGradient id="pwsh-bg" gradientUnits="userSpaceOnUse" x1="45.632" y1="36.463" x2="11.349" y2="5.84">
      <stop offset="0" stop-color="#2D4664"/>
      <stop offset=".169" stop-color="#29405B"/>
      <stop offset=".445" stop-color="#1E2F43"/>
      <stop offset=".79" stop-color="#0C131B"/>
      <stop offset="1" stop-color="#000"/>
    </linearGradient>
  </defs>
  <path fill="url(#pwsh-bg)" fill-rule="evenodd" d="M57.249 0H12.817c-1.385 0-2.765 1.13-3.084 2.523L.816 41.478C.498 42.871 1.361 44 2.746 44h44.432c1.384 0 2.765-1.129 3.084-2.522l8.917-38.956C59.497 1.13 58.633 0 57.249 0Z"/>
  <path fill="#2C5591" fill-rule="evenodd" d="M30.082 34.279h10.806c1.257 0 2.275 1.063 2.275 2.373 0 1.311-1.018 2.374-2.275 2.374H30.082c-1.257 0-2.275-1.063-2.275-2.374 0-1.31 1.018-2.373 2.275-2.373ZM37.091 23.728c-.186.374-.572.787-1.255 1.267L15.78 39.4c-1.095.796-2.667.5-3.51-.66-.844-1.16-.64-2.745.455-3.541l18.086-13.097v-.269L19.447 9.744c-.927-.986-.83-2.581.216-3.562 1.046-.981 2.645-.977 3.572.009L36.87 20.697c.774.823.831 2.07.221 3.031Z"/>
  <path fill="#FFF" fill-rule="evenodd" d="M36.591 23.228c-.186.374-.572.787-1.255 1.267L15.28 38.9c-1.095.796-2.667.5-3.51-.66-.844-1.16-.64-2.745.455-3.541l18.086-13.097v-.269L18.947 9.244c-.927-.986-.83-2.581.216-3.562 1.046-.981 2.645-.977 3.572.009L36.37 20.197c.774.823.831 2.07.221 3.031ZM29.774 34h10.806c1.257 0 2.275 1.008 2.275 2.25 0 1.243-1.018 2.25-2.275 2.25H29.774c-1.257 0-2.275-1.007-2.275-2.25 0-1.242 1.018-2.25 2.275-2.25Z"/>
</svg>
